<?xml version="1.0" encoding="UTF-8" standalone="no"?>
<svg width="23" height="16" viewBox="0 0 23 16" fill="none" xmlns="http://www.w3.org/2000/svg">
	<path d="M9.23988 4.45312C9.17359 3.83286 8.89424 3.34991 8.40181 3.00426C7.91412 2.65862 7.27965 2.4858 6.4984 2.4858C5.94916 2.4858 5.47804 2.56866 5.08505 2.73438C4.69206 2.90009 4.39139 3.125 4.18306 3.40909C3.97473 3.69318 3.86819 4.01752 3.86346 4.3821C3.86346 4.68513 3.93211 4.94792 4.06942 5.17045C4.21147 5.39299 4.40323 5.58239 4.64471 5.73864C4.88619 5.89015 5.15371 6.01799 5.44727 6.12216C5.74083 6.22633 6.03675 6.31392 6.33505 6.38494L7.69869 6.72585C8.24793 6.85369 8.77586 7.02651 9.28249 7.24432C9.79386 7.46212 10.2508 7.73674 10.6532 8.06818C11.0604 8.39962 11.3824 8.79972 11.6191 9.26847C11.8559 9.73722 11.9743 10.2865 11.9743 10.9162C11.9743 11.7685 11.7565 12.5189 11.3208 13.1676C10.8852 13.8116 10.2555 14.3158 9.43164 14.6804C8.61251 15.0402 7.62056 15.2202 6.45579 15.2202C5.32416 15.2202 4.34168 15.045 3.50835 14.6946C2.67975 14.3442 2.03107 13.8329 1.56232 13.1605C1.09831 12.4882 0.84736 11.669 0.809482 10.7031H3.40181C3.43969 11.2098 3.59594 11.6312 3.87056 11.9673C4.14518 12.3035 4.50266 12.5545 4.943 12.7202C5.38808 12.8859 5.88524 12.9688 6.43448 12.9688C7.0074 12.9688 7.50929 12.8835 7.94016 12.7131C8.37577 12.5379 8.71668 12.2964 8.96289 11.9886C9.2091 11.6761 9.33458 11.3116 9.33931 10.8949C9.33458 10.5161 9.22331 10.2036 9.0055 9.95739C8.7877 9.70644 8.4823 9.49811 8.08931 9.33239C7.70105 9.16193 7.24651 9.01042 6.72567 8.87784L5.07085 8.4517C3.87293 8.14394 2.92596 7.67756 2.22994 7.05256C1.53865 6.42282 1.193 5.58712 1.193 4.54545C1.193 3.68845 1.42501 2.93797 1.88903 2.29403C2.35778 1.65009 2.99461 1.15057 3.79954 0.795454C4.60446 0.435605 5.51592 0.255681 6.53391 0.255681C7.56611 0.255681 8.47047 0.435605 9.24698 0.795454C10.0282 1.15057 10.6414 1.64536 11.0865 2.27983C11.5315 2.90956 11.7612 3.634 11.7754 4.45312H9.23988ZM20.062 0.454545H22.6756V10.6818C22.6709 11.6193 22.472 12.4266 22.079 13.1037C21.686 13.776 21.1368 14.2945 20.4313 14.6591C19.7305 15.0189 18.9138 15.1989 17.981 15.1989C17.1287 15.1989 16.3617 15.0473 15.6799 14.7443C15.0028 14.4366 14.4654 13.982 14.0676 13.3807C13.6699 12.7794 13.4711 12.0312 13.4711 11.1364H16.0918C16.0965 11.5294 16.1818 11.8679 16.3475 12.152C16.5179 12.4361 16.7523 12.6539 17.0506 12.8054C17.3489 12.9569 17.6922 13.0327 18.0804 13.0327C18.5018 13.0327 18.8593 12.9451 19.1529 12.7699C19.4464 12.59 19.669 12.3248 19.8205 11.9744C19.9767 11.6241 20.0572 11.1932 20.062 10.6818V0.454545Z" fill="white"/>
</svg>
