<?xml version="1.0" encoding="UTF-8" standalone="no"?>
<svg width="30" height="15" viewBox="0 0 30 15" fill="none" xmlns="http://www.w3.org/2000/svg">
	<path d="M0.799893 0.454545H4.02433L8.34251 10.9943H8.51296L12.8311 0.454545H16.0556V15H13.5272V5.0071H13.3922L9.37234 14.9574H7.48313L3.46325 4.9858H3.3283V15H0.799893V0.454545ZM18.9249 15V0.454545H24.4931C25.5442 0.454545 26.4178 0.620265 27.1138 0.951704C27.8146 1.27841 28.3378 1.72585 28.6834 2.29403C29.0338 2.86222 29.209 3.50616 29.209 4.22585C29.209 4.81771 29.0953 5.32434 28.8681 5.74574C28.6408 6.1624 28.3354 6.50095 27.9519 6.76136C27.5684 7.02178 27.1399 7.20881 26.6664 7.32244V7.46449C27.1825 7.4929 27.6773 7.65151 28.1507 7.94034C28.629 8.22443 29.0196 8.62689 29.3226 9.14773C29.6257 9.66856 29.7772 10.2983 29.7772 11.0369C29.7772 11.7898 29.5949 12.4669 29.2303 13.0682C28.8657 13.6648 28.3165 14.1359 27.5826 14.4815C26.8487 14.8272 25.9254 15 24.8127 15H18.9249ZM21.5598 12.7983H24.3936C25.3501 12.7983 26.039 12.616 26.4604 12.2514C26.8865 11.8821 27.0996 11.4086 27.0996 10.831C27.0996 10.4001 26.9931 10.0118 26.78 9.66619C26.5669 9.31581 26.2639 9.04119 25.8709 8.84233C25.4779 8.63873 25.0092 8.53693 24.4647 8.53693H21.5598V12.7983ZM21.5598 6.64062H24.1664C24.6209 6.64062 25.0305 6.55777 25.3951 6.39205C25.7596 6.22159 26.0461 5.98248 26.2544 5.67472C26.4675 5.36222 26.574 4.9929 26.574 4.56676C26.574 4.00331 26.3752 3.5393 25.9775 3.17472C25.5845 2.81013 24.9997 2.62784 24.2232 2.62784H21.5598V6.64062Z" fill="white"/>
</svg>
