<?xml version="1.0" encoding="UTF-8" standalone="no"?>
<svg width="24" height="16" viewBox="0 0 24 16" fill="none" xmlns="http://www.w3.org/2000/svg">
	<path d="M7.07369 0.454545H9.68732V10.6818C9.68259 11.6193 9.48372 12.4266 9.09073 13.1037C8.69774 13.776 8.1485 14.2945 7.443 14.6591C6.74225 15.0189 5.92549 15.1989 4.99272 15.1989C4.14045 15.1989 3.3734 15.0473 2.69158 14.7443C2.0145 14.4366 1.4771 13.982 1.07937 13.3807C0.681641 12.7794 0.482777 12.0312 0.482777 11.1364H3.10352C3.10825 11.5294 3.19348 11.8679 3.3592 12.152C3.52965 12.4361 3.76403 12.6539 4.06232 12.8054C4.36062 12.9569 4.70389 13.0327 5.09215 13.0327C5.51355 13.0327 5.87103 12.9451 6.1646 12.7699C6.45816 12.59 6.68069 12.3248 6.83221 11.9744C6.98846 11.6241 7.06895 11.1932 7.07369 10.6818V0.454545ZM20.4508 4.45312C20.3845 3.83286 20.1052 3.34991 19.6127 3.00426C19.1251 2.65862 18.4906 2.4858 17.7093 2.4858C17.1601 2.4858 16.689 2.56866 16.296 2.73438C15.903 2.90009 15.6023 3.125 15.394 3.40909C15.1857 3.69318 15.0791 4.01752 15.0744 4.3821C15.0744 4.68513 15.1431 4.94792 15.2804 5.17045C15.4224 5.39299 15.6142 5.58239 15.8556 5.73864C16.0971 5.89015 16.3646 6.01799 16.6582 6.12216C16.9518 6.22633 17.2477 6.31392 17.546 6.38494L18.9096 6.72585C19.4589 6.85369 19.9868 7.02651 20.4934 7.24432C21.0048 7.46212 21.4617 7.73674 21.8642 8.06818C22.2714 8.39962 22.5933 8.79972 22.8301 9.26847C23.0668 9.73722 23.1852 10.2865 23.1852 10.9162C23.1852 11.7685 22.9674 12.5189 22.5318 13.1676C22.0962 13.8116 21.4664 14.3158 20.6426 14.6804C19.8234 15.0402 18.8315 15.2202 17.6667 15.2202C16.5351 15.2202 15.5526 15.045 14.7193 14.6946C13.8907 14.3442 13.242 13.8329 12.7733 13.1605C12.3092 12.4882 12.0583 11.669 12.0204 10.7031H14.6127C14.6506 11.2098 14.8069 11.6312 15.0815 11.9673C15.3561 12.3035 15.7136 12.5545 16.1539 12.7202C16.599 12.8859 17.0962 12.9688 17.6454 12.9688C18.2183 12.9688 18.7202 12.8835 19.1511 12.7131C19.5867 12.5379 19.9276 12.2964 20.1738 11.9886C20.42 11.6761 20.5455 11.3116 20.5502 10.8949C20.5455 10.5161 20.4342 10.2036 20.2164 9.95739C19.9986 9.70644 19.6932 9.49811 19.3002 9.33239C18.912 9.16193 18.4574 9.01042 17.9366 8.87784L16.2818 8.4517C15.0839 8.14394 14.1369 7.67756 13.4409 7.05256C12.7496 6.42282 12.4039 5.58712 12.4039 4.54545C12.4039 3.68845 12.6359 2.93797 13.1 2.29403C13.5687 1.65009 14.2056 1.15057 15.0105 0.795454C15.8154 0.435605 16.7269 0.255681 17.7449 0.255681C18.777 0.255681 19.6814 0.435605 20.4579 0.795454C21.2392 1.15057 21.8523 1.64536 22.2974 2.27983C22.7425 2.90956 22.9721 3.634 22.9863 4.45312H20.4508Z" fill="white"/>
</svg>
